<?xml version="1.0" encoding="iso-8859-1"?>
<!-- Uploaded to: SVG Repo, www.svgrepo.com, Generator: SVG Repo Mixer Tools -->
<svg fill="#000000" height="800px" width="800px" version="1.1" id="Layer_1" xmlns="http://www.w3.org/2000/svg" xmlns:xlink="http://www.w3.org/1999/xlink" 
	 viewBox="0 0 491.569 491.569" xml:space="preserve">
<g>
	<g>
		<g>
			<path d="M266.248,122.905h102.4c11.311,0,20.48-9.169,20.48-20.48s-9.169-20.48-20.48-20.48h-102.4
				c-11.311,0-20.48,9.169-20.48,20.48S254.937,122.905,266.248,122.905z"/>
			<path d="M485.497,403.659c0.083-0.083,0.158-0.173,0.24-0.257c0.373-0.383,0.729-0.773,1.065-1.171
				c0.056-0.068,0.108-0.138,0.164-0.206c3.429-4.178,4.83-9.097,4.566-13.862V20.505c0-11.311-9.169-20.48-20.48-20.48H194.92
				c-28.473,0-51.548,23.075-51.548,51.548v133.057c-4.823,1.387-9.743,2.807-14.744,4.256
				c-13.209,3.846-25.529,10.137-36.352,18.564c-3.427,2.685-7.074,5.005-10.95,6.974c-15.557,7.85-27.446,21.541-33.157,38.068
				l-34.113,11.268C5.667,266.53,0,274.37,0,283.206v85.463c0,11.311,9.169,20.48,20.48,20.48h10.301
				c6.716,0,16.817,1.767,29.826,5.131c4.378,1.132,9.017,2.423,14.282,3.959c4.175,1.218,18.966,5.675,22.022,6.563
				c10.914,3.193,22.314,4.827,33.812,4.827h12.648v20.314c0,0.054-0.004,0.108-0.004,0.162c0,33.941,27.499,61.44,61.44,61.44
				h266.24c18.246,0,27.383-22.06,14.482-34.962C466.239,437.292,466.229,422.944,485.497,403.659z M184.332,51.573
				c0-5.852,4.737-10.588,10.588-10.588h255.652v327.68h-245.76h-0.004c-0.008,0-0.015,0.001-0.023,0.001
				c-0.978,0-1.949,0.028-2.915,0.074c-0.326,0.015-0.648,0.042-0.973,0.063c-0.65,0.041-1.298,0.087-1.942,0.148
				c-0.375,0.035-0.747,0.078-1.119,0.12c-0.593,0.067-1.184,0.141-1.772,0.225c-0.381,0.054-0.762,0.111-1.141,0.172
				c-0.587,0.095-1.17,0.201-1.752,0.313c-0.36,0.069-0.721,0.135-1.079,0.21c-0.655,0.138-1.304,0.292-1.951,0.45
				c-0.271,0.066-0.546,0.125-0.816,0.195c-0.896,0.232-1.783,0.484-2.662,0.756c-0.281,0.087-0.557,0.185-0.836,0.276
				c-0.499,0.162-1.001,0.319-1.495,0.493v-79.741c0-8.962,2.649-15.566,7.341-19.429c1.662-1.365,3.575-2.395,5.725-3.055
				l12.263-3.778l25.563-7.861c2.689-0.829,5.302-1.827,7.833-2.975c11.354-5.136,21.019-13.403,27.882-23.833
				c2.344-3.566,4.094-7.239,5.32-10.944c6.161-18.585-1.098-38.023-15.271-49.296c-8.062-6.418-18.36-10.189-29.69-9.649
				c-0.008,0-0.015,0-0.022,0.001c-0.224,0.011-0.45,0.031-0.674,0.045c-2.771,0.173-5.601,0.595-8.474,1.308
				c-2.448,0.611-5.113,1.292-7.969,2.034c-8.479,2.198-18.554,4.924-29.825,8.05V51.573z M143.36,368.669h-12.636
				c-7.605,0-15.132-1.079-22.349-3.19c-2.84-0.825-17.599-5.272-22.012-6.56c-5.641-1.646-10.672-3.046-15.502-4.295
				c-11.391-2.946-21.229-4.945-29.902-5.862v-50.753l26.74-8.833c11.227-3.715,14.486-8.945,19.064-22.956
				c2.181-6.636,6.892-12.139,13.066-15.254c6.287-3.194,12.18-6.943,17.658-11.235c6.685-5.205,14.351-9.119,22.566-11.511
				c10.17-2.947,20.015-5.777,29.372-8.44c0.012-0.003,0.024-0.006,0.036-0.009c21.957-6.253,41.618-11.676,55.83-15.357
				c2.381-0.615,4.628-1.187,6.714-1.705c3.017-0.751,5.552,1.85,5.333,4.481c-0.053,0.605-0.252,1.21-0.625,1.777
				c-2.39,3.633-5.659,6.567-9.499,8.537c-1.275,0.65-2.613,1.194-4.002,1.619l-25.596,7.885l-12.26,3.77
				c-5.77,1.774-10.996,4.301-15.65,7.455c-17.006,11.516-26.347,31.462-26.347,54.17V368.669z M433.569,450.585h-228.76
				c-11.32,0-20.48-9.16-20.48-20.48h0.004c0-11.32,9.16-20.48,20.48-20.48h228.756C428.935,423.199,428.935,437.01,433.569,450.585
				z"/>
		</g>
	</g>
</g>
</svg>